{"title":"Mother.1963.DVDRip.x264-HANDJOB.mkv","uid":8827436,"size":1960210037,"categoryP":"video","categoryS":"movies","magnet":"?xt=urn:btih:df7d155200830868288e858c1916229f70ce4920&amp;dn=Mother.1963.DVDRip.x264-HANDJOB.mkv&amp;tr=udp%3A%2F%2Ftracker.openbittorrent.com%3A80&amp;tr=udp%3A%2F%2Fopen.demonii.com%3A1337&amp;tr=udp%3A%2F%2Ftracker.coppersurfer.tk%3A6969&amp;tr=udp%3A%2F%2Fexodus.desync.com%3A6969","seeders":0,"leechers":2,"uploader":null,"files":1,"time":1376882314,"description":"Tamiko (Nobuko Otowa) is a single mother. Her son Toshio (Koji Takahashi) is going blind. He is diagnosed with a brain tumour. She does not have the money for surgery. She asks her mother Yoshie (Haruko Sugimura) for money. Yoshie refuses but arranges a marriage with another single parent, Tajima (Taiji Tonoyama) on condition he pays for the surgery. Tamiko marries Tajima and works with him in his printing business. Toshio is operated on and recovers. However, the tumour returns. The surgeon (Kei Sato) refuses to operate, saying that another operation would be fatal, and tells Tamiko to make Toshio's remaining life enjoyable. Toshio starts learning braille. Tamiko's brother Haruo lends her money to buy an electric organ for Toshio. Haruo, a barman, is involved in various fights over women, and finally dies in an attempt to kill a rival. Toshio dies of the tumour. Tamiko discovers she is pregnant and is determined to have the baby, even if it is dangerous to her health.\n\n\nGeneral\n\nFormat                                   : Matroska\nFormat version                           : Version 2\nFile size                                : 1.83 GiB\nDuration                                 : 1h 40mn\nOverall bit rate                         : 2 592 Kbps\nEncoded date                             : UTC 2012-11-13 00:07:21\nWriting application                      : mkvmerge v4.9.1 ('Ich will') built on Jul 11 2011 23:53:15\nWriting library                          : libebml v1.2.1 + libmatroska v1.1.1\n\nVideo\nID                                       : 1\nFormat                                   : AVC\nFormat/Info                              : Advanced Video Codec\nFormat profile                           : &lt;a class=&quot;__cf_email__&quot; href=&quot;/cdn-cgi/l/email-protection&quot; data-cfemail=&quot;733b1a141b333f405d42&quot;&gt;[email&amp;#160;protected]&lt;/a&gt;&lt;script cf-hash='f9e31' type=&quot;text/javascript&quot;&gt;\n/* &lt;![CDATA[ */!function(){try{var t=&quot;currentScript&quot;in document?document.currentScript:function(){for(var t=document.getElementsByTagName(&quot;script&quot;),e=t.length;e--;)if(t[e].getAttribute(&quot;cf-hash&quot;))return t[e]}();if(t&amp;&amp;t.previousSibling){var e,r,n,i,c=t.previousSibling,a=c.getAttribute(&quot;data-cfemail&quot;);if(a){for(e=&quot;&quot;,r=parseInt(a.substr(0,2),16),n=2;a.length-n;n+=2)i=parseInt(a.substr(n,2),16)^r,e+=String.fromCharCode(i);e=document.createTextNode(e),c.parentNode.replaceChild(e,c)}}}catch(u){}}();/* ]]&gt; */&lt;/script&gt;\nFormat settings, CABAC                   : Yes\nFormat settings, ReFrames                : 11 frames\nCodec ID                                 : V_MPEG4/ISO/AVC\nDuration                                 : 1h 40mn\nBit rate                                 : 2 317 Kbps\nWidth                                    : 708 pixels\nHeight                                   : 480 pixels\nDisplay aspect ratio                     : 4:3\nOriginal display aspect ratio            : 4:3\nFrame rate mode                          : Constant\nFrame rate                               : 23.976 fps\nColor space                              : YUV\nChroma subsampling                       : 4:2:0\nBit depth                                : 8 bits\nScan type                                : Progressive\nBits/(Pixel*Frame)                       : 0.284\nStream size                              : 1.63 GiB (89%)\nWriting library                          : x264 core 120\nLanguage                                 : English\nDefault                                  : Yes\nForced                                   : No\nColor primaries                          : BT.601 NTSC\nTransfer characteristics                 : BT.709\nMatrix coefficients                      : BT.601\n\nAudio\nID                                       : 2\nFormat                                   : AC-3\nFormat/Info                              : Audio Coding 3\nMode extension                           : CM (complete main)\nFormat settings, Endianness              : Big\nCodec ID                                 : A_AC3\nDuration                                 : 1h 40mn\nBit rate mode                            : Constant\nBit rate                                 : 224 Kbps\nChannel(s)                               : 1 channel\nChannel positions                        : Front: C\nSampling rate                            : 48.0 KHz\nBit depth                                : 16 bits\nCompression mode                         : Lossy\nStream size                              : 162 MiB (9%)\nLanguage                                 : Japanese\nDefault                                  : Yes\nForced                                   : No\n\nText #1\nID                                       : 3\nFormat                                   : VobSub\nMuxing mode                              : zlib\nCodec ID                                 : S_VOBSUB\nCodec ID/Info                            : The same subtitle format used on DVDs\nLanguage                                 : Japanese\nDefault                                  : No\nForced                                   : No\n\nText #2\nID                                       : 4\nFormat                                   : VobSub\nMuxing mode                              : zlib\nCodec ID                                 : S_VOBSUB\nCodec ID/Info                            : The same subtitle format used on DVDs\nLanguage                                 : English\nDefault                                  : No\nForced                                   : No","torrent":{"xt":"urn:btih:df7d155200830868288e858c1916229f70ce4920","amp;dn":"Mother.1963.DVDRip.x264-HANDJOB.mkv","amp;tr":["udp%3A%2F%2Ftracker.openbittorrent.com%3A80","udp%3A%2F%2Fopen.demonii.com%3A1337","udp%3A%2F%2Ftracker.coppersurfer.tk%3A6969","udp%3A%2F%2Fexodus.desync.com%3A6969"],"infoHash":"df7d155200830868288e858c1916229f70ce4920","infoHashBuffer":{"type":"Buffer","data":[223,125,21,82,0,131,8,104,40,142,133,140,25,22,34,159,112,206,73,32]},"announce":[],"urlList":[]}}